<svg xmlns="http://www.w3.org/2000/svg" width="640" height="320" viewBox="0 0 640 320" role="img" aria-labelledby="title desc">
  <title id="title">Triangular and Square Figurate Numbers</title>
  <desc id="desc">Larger dot diagrams for triangular and square figurate numbers.</desc>

  <rect width="100%" height="100%" fill="#ffffff"/>
  <text x="105" y="42" font-size="22" fill="#334155">Triangular</text>
  <text x="405" y="42" font-size="22" fill="#334155">Square</text>

  <g fill="#0f766e">
    <circle cx="140" cy="78" r="10"/>
    <circle cx="115" cy="118" r="10"/><circle cx="165" cy="118" r="10"/>
    <circle cx="90" cy="158" r="10"/><circle cx="140" cy="158" r="10"/><circle cx="190" cy="158" r="10"/>
    <circle cx="65" cy="198" r="10"/><circle cx="115" cy="198" r="10"/><circle cx="165" cy="198" r="10"/><circle cx="215" cy="198" r="10"/>
  </g>

  <g fill="#1d4ed8">
    <circle cx="390" cy="88" r="10"/><circle cx="440" cy="88" r="10"/><circle cx="490" cy="88" r="10"/><circle cx="540" cy="88" r="10"/>
    <circle cx="390" cy="138" r="10"/><circle cx="440" cy="138" r="10"/><circle cx="490" cy="138" r="10"/><circle cx="540" cy="138" r="10"/>
    <circle cx="390" cy="188" r="10"/><circle cx="440" cy="188" r="10"/><circle cx="490" cy="188" r="10"/><circle cx="540" cy="188" r="10"/>
    <circle cx="390" cy="238" r="10"/><circle cx="440" cy="238" r="10"/><circle cx="490" cy="238" r="10"/><circle cx="540" cy="238" r="10"/>
  </g>
</svg>
